<?xml version="1.0" standalone="no"?>
<!DOCTYPE svg PUBLIC "-//W3C//DTD SVG 20010904//EN"
 "http://www.w3.org/TR/2001/REC-SVG-20010904/DTD/svg10.dtd">
<svg version="1.0" xmlns="http://www.w3.org/2000/svg"
 width="500.000000pt" height="500.000000pt" viewBox="0 0 500.000000 500.000000"
 preserveAspectRatio="xMidYMid meet">
<metadata>
Created by potrace 1.11, written by Peter Selinger 2001-2013
</metadata>
<g transform="translate(0.000000,500.000000) scale(0.100000,-0.100000)"
fill="#000000" stroke="none">
<path d="M2355 4010 c-3 -5 -33 -10 -66 -10 -33 0 -76 -7 -96 -15 -19 -8 -46
-15 -59 -15 -12 0 -25 -4 -28 -9 -4 -5 -24 -12 -46 -16 -22 -4 -42 -11 -46
-16 -3 -5 -13 -9 -23 -9 -17 0 -68 -20 -171 -68 -19 -9 -39 -22 -43 -29 -4 -7
-16 -13 -26 -13 -10 0 -24 -7 -31 -15 -7 -8 -17 -15 -23 -15 -39 0 -387 -319
-387 -356 0 -3 -13 -19 -30 -37 -16 -18 -30 -36 -30 -40 0 -5 -10 -23 -22 -40
-28 -39 -42 -62 -63 -107 -9 -19 -21 -42 -26 -50 -5 -8 -12 -22 -15 -30 -3 -8
-12 -28 -19 -45 -36 -84 -80 -243 -90 -327 -3 -32 -11 -58 -16 -58 -5 0 -9
-80 -9 -190 0 -110 4 -190 9 -190 5 0 13 -26 16 -57 4 -32 11 -71 15 -88 5
-16 16 -57 25 -90 9 -33 21 -71 27 -85 5 -14 16 -38 22 -55 7 -16 25 -55 40
-85 14 -30 26 -61 26 -68 0 -7 7 -15 15 -18 8 -3 17 -16 21 -27 12 -39 157
-230 234 -308 41 -42 100 -94 131 -117 31 -22 62 -46 70 -54 16 -14 38 -28
100 -60 21 -11 42 -24 45 -29 3 -5 14 -9 25 -9 10 0 19 -4 19 -10 0 -5 9 -10
19 -10 11 0 26 -6 33 -13 7 -8 25 -16 38 -19 14 -3 41 -12 60 -18 19 -7 44
-16 55 -20 28 -10 117 -35 194 -55 82 -22 451 -25 521 -6 25 7 61 15 80 18 19
2 49 10 65 18 17 7 50 19 75 25 25 7 60 18 78 26 18 8 38 14 44 14 6 0 19 6
27 13 9 7 35 19 58 27 23 7 44 19 47 26 3 8 14 14 24 14 11 0 25 7 32 15 7 8
17 15 22 15 17 0 172 118 216 165 23 25 47 45 52 45 6 0 10 4 10 9 0 4 21 30
48 57 52 55 142 176 142 193 0 6 4 11 9 11 10 0 21 20 73 125 16 33 33 68 38
77 17 30 62 161 72 208 5 25 15 73 21 108 6 34 15 62 19 62 4 0 8 99 8 220 0
121 -4 220 -9 220 -4 0 -11 26 -15 58 -4 31 -11 71 -16 87 -5 17 -17 57 -26
90 -10 33 -22 64 -26 70 -4 5 -8 16 -8 25 0 16 -67 152 -109 220 -11 19 -25
44 -30 55 -5 11 -19 29 -31 40 -12 11 -30 36 -40 55 -21 41 -295 310 -315 310
-4 0 -21 11 -39 25 -18 14 -36 25 -39 25 -3 0 -22 11 -42 24 -68 47 -224 116
-259 116 -12 0 -26 4 -32 9 -14 14 -118 41 -157 41 -19 0 -51 7 -70 15 -20 8
-56 15 -81 15 -25 0 -48 5 -51 10 -4 6 -58 10 -130 10 -72 0 -126 -4 -130 -10z
m1110 -815 c36 -46 31 -103 -16 -185 -5 -8 -16 -30 -25 -48 -25 -49 -187 -210
-283 -281 -46 -34 -86 -59 -89 -56 -3 3 -3 6 -1 8 2 2 31 24 64 49 241 184
394 439 310 518 -30 29 -32 40 -5 33 12 -3 32 -20 45 -38z m-268 29 c-3 -3
-12 -4 -19 -1 -8 3 -5 6 6 6 11 1 17 -2 13 -5z m-62 -24 c-3 -5 -10 -10 -15
-10 -37 0 -191 -131 -274 -233 -35 -43 -166 -234 -166 -241 0 -2 -25 -41 -55
-86 -30 -45 -55 -84 -55 -87 0 -4 -18 -30 -40 -59 -22 -29 -40 -60 -40 -68 0
-8 -4 -18 -10 -21 -5 -3 -49 -52 -97 -108 -128 -148 -189 -205 -301 -280 l-63
-42 23 -19 23 -19 -35 7 c-44 8 -57 8 -98 0 -29 -6 -32 -4 -30 17 2 19 -2 24
-22 27 -14 1 -61 10 -106 18 -93 19 -276 16 -296 -4 -7 -7 -19 -12 -27 -12 -9
0 -1 9 16 20 49 29 161 40 263 24 105 -16 180 -35 180 -46 0 -4 15 -8 33 -8
41 0 99 48 208 170 173 193 183 211 119 223 -15 2 -7 5 21 6 51 1 37 -15 184
201 145 211 221 305 360 443 77 77 130 116 220 164 61 33 91 41 80 23z m-958
-216 c-3 -3 -12 -4 -19 -1 -8 3 -5 6 6 6 11 1 17 -2 13 -5z m-168 -95 c-58
-59 -75 -90 -90 -158 -25 -120 43 -263 146 -306 17 -7 18 -9 3 -12 -30 -7
-178 102 -178 132 0 6 -7 27 -16 45 -17 34 -15 110 4 147 6 10 18 35 28 57 17
35 127 146 145 146 4 0 -15 -23 -42 -51z m1026 -279 c-3 -5 -11 -10 -16 -10
-6 0 -7 5 -4 10 3 6 11 10 16 10 6 0 7 -4 4 -10z m-35 -24 c0 -2 -7 -6 -15
-10 -8 -3 -15 -1 -15 4 0 6 7 10 15 10 8 0 15 -2 15 -4z m-103 -62 c-3 -3 -12
-4 -19 -1 -8 3 -5 6 6 6 11 1 17 -2 13 -5z m-47 -18 c0 -3 -4 -8 -10 -11 -5
-3 -10 -1 -10 4 0 6 5 11 10 11 6 0 10 -2 10 -4z m-710 -115 c0 -5 -9 -7 -20
-4 -11 3 -20 7 -20 9 0 2 9 4 20 4 11 0 20 -4 20 -9z m417 3 c-3 -3 -12 -4
-19 -1 -8 3 -5 6 6 6 11 1 17 -2 13 -5z m-388 -490 c2 -2 -10 -4 -27 -4 -18 0
-32 5 -32 10 0 9 47 4 59 -6z m521 6 c0 -5 -8 -10 -18 -10 -10 0 -22 -4 -28
-10 -5 -5 -45 -17 -89 -26 -69 -14 -92 -15 -189 -3 -177 20 -165 27 44 26 161
-1 201 2 230 15 42 20 50 21 50 8z m-827 -7 c-7 -2 -19 -2 -25 0 -7 3 -2 5 12
5 14 0 19 -2 13 -5z"/>
</g>
</svg>
